<svg width="100%" height="100%" id="svg" viewBox="0 0 1440 690" xmlns="http://www.w3.org/2000/svg" class="transition duration-300 ease-in-out delay-150"><defs><linearGradient id="gradient" x1="60%" y1="1%" x2="40%" y2="99%"><stop offset="5%" stop-color="#ff6900"></stop><stop offset="95%" stop-color="#9900ef"></stop></linearGradient></defs><path d="M 0,700 C 0,700 0,140 0,140 C 100.98564593301435,115.66507177033492 201.9712918660287,91.33014354066985 309,104 C 416.0287081339713,116.66985645933015 529.1004784688996,166.3444976076555 611,186 C 692.8995215311004,205.6555023923445 743.6267942583733,195.29186602870814 838,181 C 932.3732057416267,166.70813397129186 1070.3923444976076,148.48803827751198 1178,141 C 1285.6076555023924,133.51196172248802 1362.8038277511962,136.755980861244 1440,140 C 1440,140 1440,700 1440,700 Z" stroke="none" stroke-width="0" fill="url(#gradient)" fill-opacity="0.265" class="transition-all duration-300 ease-in-out delay-150 path-0"></path><defs><linearGradient id="gradient" x1="60%" y1="1%" x2="40%" y2="99%"><stop offset="5%" stop-color="#ff6900"></stop><stop offset="95%" stop-color="#9900ef"></stop></linearGradient></defs><path d="M 0,700 C 0,700 0,280 0,280 C 91.29186602870809,260.8421052631579 182.58373205741617,241.68421052631578 287,246 C 391.41626794258383,250.31578947368422 508.9569377990432,278.10526315789474 608,296 C 707.0430622009568,313.89473684210526 787.5885167464114,321.89473684210526 886,326 C 984.4114832535886,330.10526315789474 1100.688995215311,330.3157894736842 1196,322 C 1291.311004784689,313.6842105263158 1365.6555023923445,296.8421052631579 1440,280 C 1440,280 1440,700 1440,700 Z" stroke="none" stroke-width="0" fill="url(#gradient)" fill-opacity="0.4" class="transition-all duration-300 ease-in-out delay-150 path-1"></path><defs><linearGradient id="gradient" x1="60%" y1="1%" x2="40%" y2="99%"><stop offset="5%" stop-color="#ff6900"></stop><stop offset="95%" stop-color="#9900ef"></stop></linearGradient></defs><path d="M 0,700 C 0,700 0,420 0,420 C 108.72727272727272,434.97607655502395 217.45454545454544,449.95215311004785 309,461 C 400.54545454545456,472.04784688995215 474.9090909090909,479.1674641148325 552,464 C 629.0909090909091,448.8325358851675 708.909090909091,411.37799043062205 824,399 C 939.090909090909,386.62200956937795 1089.4545454545455,399.3205741626794 1198,407 C 1306.5454545454545,414.6794258373206 1373.2727272727273,417.3397129186603 1440,420 C 1440,420 1440,700 1440,700 Z" stroke="none" stroke-width="0" fill="url(#gradient)" fill-opacity="0.53" class="transition-all duration-300 ease-in-out delay-150 path-2"></path><defs><linearGradient id="gradient" x1="60%" y1="1%" x2="40%" y2="99%"><stop offset="5%" stop-color="#ff6900"></stop><stop offset="95%" stop-color="#9900ef"></stop></linearGradient></defs><path d="M 0,700 C 0,700 0,560 0,560 C 67.75119617224877,545.8086124401914 135.50239234449754,531.6172248803829 237,537 C 338.49760765550246,542.3827751196171 473.7416267942584,567.3397129186602 578,564 C 682.2583732057416,560.6602870813398 755.5311004784689,529.0239234449762 845,518 C 934.4688995215311,506.97607655502384 1040.1339712918661,516.5645933014354 1142,527 C 1243.8660287081339,537.4354066985646 1341.933014354067,548.7177033492824 1440,560 C 1440,560 1440,700 1440,700 Z" stroke="none" stroke-width="0" fill="url(#gradient)" fill-opacity="1" class="transition-all duration-300 ease-in-out delay-150 path-3"></path></svg>